<svg width="112" height="33" viewBox="0 0 112 33" fill="none" xmlns="http://www.w3.org/2000/svg">
<path d="M0.12 12.8C0.12 10.6027 0.610667 8.64 1.592 6.912C2.59467 5.16267 3.94933 3.808 5.656 2.848C7.384 1.86667 9.31467 1.376 11.448 1.376C13.944 1.376 16.1307 2.016 18.008 3.296C19.8853 4.576 21.1973 6.34667 21.944 8.608H16.792C16.28 7.54133 15.5547 6.74133 14.616 6.208C13.6987 5.67467 12.632 5.408 11.416 5.408C10.1147 5.408 8.952 5.71733 7.928 6.336C6.92533 6.93333 6.136 7.78667 5.56 8.896C5.00533 10.0053 4.728 11.3067 4.728 12.8C4.728 14.272 5.00533 15.5733 5.56 16.704C6.136 17.8133 6.92533 18.6773 7.928 19.296C8.952 19.8933 10.1147 20.192 11.416 20.192C12.632 20.192 13.6987 19.9253 14.616 19.392C15.5547 18.8373 16.28 18.0267 16.792 16.96H21.944C21.1973 19.2427 19.8853 21.024 18.008 22.304C16.152 23.5627 13.9653 24.192 11.448 24.192C9.31467 24.192 7.384 23.712 5.656 22.752C3.94933 21.7707 2.59467 20.416 1.592 18.688C0.610667 16.96 0.12 14.9973 0.12 12.8ZM24.6185 15.072C24.6185 13.28 24.9705 11.6907 25.6745 10.304C26.3998 8.91733 27.3705 7.85067 28.5865 7.104C29.8238 6.35733 31.1998 5.984 32.7145 5.984C34.0372 5.984 35.1892 6.25067 36.1705 6.784C37.1732 7.31733 37.9732 7.98933 38.5705 8.8V6.272H43.0825V24H38.5705V21.408C37.9945 22.24 37.1945 22.9333 36.1705 23.488C35.1678 24.0213 34.0052 24.288 32.6825 24.288C31.1892 24.288 29.8238 23.904 28.5865 23.136C27.3705 22.368 26.3998 21.2907 25.6745 19.904C24.9705 18.496 24.6185 16.8853 24.6185 15.072ZM38.5705 15.136C38.5705 14.048 38.3572 13.12 37.9305 12.352C37.5038 11.5627 36.9278 10.9653 36.2025 10.56C35.4772 10.1333 34.6985 9.92 33.8665 9.92C33.0345 9.92 32.2665 10.1227 31.5625 10.528C30.8585 10.9333 30.2825 11.5307 29.8345 12.32C29.4078 13.088 29.1945 14.0053 29.1945 15.072C29.1945 16.1387 29.4078 17.0773 29.8345 17.888C30.2825 18.6773 30.8585 19.2853 31.5625 19.712C32.2878 20.1387 33.0558 20.352 33.8665 20.352C34.6985 20.352 35.4772 20.1493 36.2025 19.744C36.9278 19.3173 37.5038 18.72 37.9305 17.952C38.3572 17.1627 38.5705 16.224 38.5705 15.136ZM57.954 24L51.938 16.448V24H47.458V0.32H51.938V13.792L57.89 6.272H63.714L55.906 15.168L63.778 24H57.954ZM82.6255 14.752C82.6255 15.392 82.5828 15.968 82.4975 16.48H69.5375C69.6442 17.76 70.0922 18.7627 70.8815 19.488C71.6708 20.2133 72.6415 20.576 73.7935 20.576C75.4575 20.576 76.6415 19.8613 77.3455 18.432H82.1775C81.6655 20.1387 80.6842 21.5467 79.2335 22.656C77.7828 23.744 76.0015 24.288 73.8895 24.288C72.1828 24.288 70.6468 23.9147 69.2815 23.168C67.9375 22.4 66.8815 21.3227 66.1135 19.936C65.3668 18.5493 64.9935 16.9493 64.9935 15.136C64.9935 13.3013 65.3668 11.6907 66.1135 10.304C66.8602 8.91733 67.9055 7.85067 69.2495 7.104C70.5935 6.35733 72.1402 5.984 73.8895 5.984C75.5748 5.984 77.0788 6.34667 78.4015 7.072C79.7455 7.79733 80.7802 8.832 81.5055 10.176C82.2522 11.4987 82.6255 13.024 82.6255 14.752ZM77.9855 13.472C77.9642 12.32 77.5482 11.4027 76.7375 10.72C75.9268 10.016 74.9348 9.664 73.7615 9.664C72.6522 9.664 71.7135 10.0053 70.9455 10.688C70.1988 11.3493 69.7402 12.2773 69.5695 13.472H77.9855ZM90.3755 0.32V24H85.8955V0.32H90.3755ZM111.762 6.272L100.786 32.384H96.0178L99.8578 23.552L92.7538 6.272H97.7778L102.354 18.656L106.994 6.272H111.762Z" fill="#4A90B7"/>
</svg>
